<svg xmlns="http://www.w3.org/2000/svg" viewBox="0 0 37.57 35.79"><defs><style>.cls-1{fill:#000000;}</style></defs><title>资源 4</title><g id="图层_2" data-name="图层 2"><g id="图层_1-2" data-name="图层 1"><path class="cls-1" d="M34.54,27.37a8.66,8.66,0,0,0,.9-6.9l-4-13.66V18A13.59,13.59,0,0,1,4.27,18a3.5,3.5,0,0,1,7,0,6.59,6.59,0,0,0,13.18,0V.14a8.7,8.7,0,0,0-4,.2L6.27,4.49A8.75,8.75,0,0,0,.35,15.31L4.5,29.51a8.76,8.76,0,0,0,10.82,5.93l14.2-4.16a10,10,0,0,0,1.08-.4,52.43,52.43,0,0,0,7-.26A21.67,21.67,0,0,1,34.54,27.37ZM19.05,8.25A1.76,1.76,0,1,1,17.29,10,1.76,1.76,0,0,1,19.05,8.25Zm-5.28,1A1.77,1.77,0,1,1,12,11.05,1.76,1.76,0,0,1,13.77,9.29Z"/></g></g></svg>